<svg xmlns="http://www.w3.org/2000/svg" viewBox="0 0 64 64" fill="none" stroke="currentColor" stroke-width="2" stroke-linecap="round" stroke-linejoin="round">
  <path d="M7 20c0-4.4 3.6-8 8-8h4c4.4 0 8 3.6 8 8v4c0 4.4-3.6 8-8 8h-4c-4.4 0-8-3.6-8-8v-4z"/>
  <path d="M37 20c0-4.4 3.6-8 8-8h4c4.4 0 8 3.6 8 8v4c0 4.4-3.6 8-8 8h-4c-4.4 0-8-3.6-8-8v-4z"/>
  <path d="M22 40c0-4.4 3.6-8 8-8h4c4.4 0 8 3.6 8 8v4c0 4.4-3.6 8-8 8h-4c-4.4 0-8-3.6-8-8v-4z"/>
  <path d="M15 28v4c0 2.2 1.8 4 4 4h4"/>
  <path d="M49 28v4c0 2.2-1.8 4-4 4h-4"/>
  <path d="M30 52h-4c-2.2 0-4-1.8-4-4v-4"/>
  <circle cx="32" cy="32" r="28" stroke-opacity="0.2"/>
</svg>
